<?xml version="1.0" encoding="utf-8"?>
<svg viewBox="12.4185 17.6328 115.6975 67.1152" xmlns="http://www.w3.org/2000/svg">
    <g transform="matrix(0.1370999962091446, 0, 0, 0.1370999962091446, 70.18327331542966, 50.98756408691406)"
       id="515578">
        <g style="" vector-effect="non-scaling-stroke">
            <g transform="matrix(0.1333 0 0 -0.1333 -336.7376 -189.0238)">
                <path style="stroke: none; stroke-width: 1; stroke-dasharray: none; stroke-linecap: butt; stroke-dashoffset: 0; stroke-linejoin: miter; stroke-miterlimit: 4; is-custom-font: none; font-file-url: none; fill: rgb(0,0,0); fill-rule: nonzero; opacity: 1;"
                      transform=" translate(-724.4967, -3332.5773)"
                      d="M 736 3710 c -19 -17 -40 -47 -46 -66 c -12 -34 -9 -42 45 -149 c 49 -97 57 -119 52 -151 c -8 -46 -30 -72 -85 -95 c -63 -27 -92 -63 -92 -113 c 0 -47 24 -90 91 -164 c 36 -40 51 -50 68 -45 c 11 3 21 7 21 10 c 0 14 -29 54 -71 99 c -51 55 -69 97 -52 123 c 5 9 36 30 67 46 c 71 37 98 72 104 135 c 5 58 -8 101 -59 190 c -22 37 -39 77 -39 88 c 0 12 14 37 30 55 c 55 64 29 92 -34 37 z"
                      stroke-linecap="round"/>
            </g>
            <g transform="matrix(0.1333 0 0 -0.1333 -46.0738 -188.8741)">
                <path style="stroke: none; stroke-width: 1; stroke-dasharray: none; stroke-linecap: butt; stroke-dashoffset: 0; stroke-linejoin: miter; stroke-miterlimit: 4; is-custom-font: none; font-file-url: none; fill: rgb(0,0,0); fill-rule: nonzero; opacity: 1;"
                      transform=" translate(-2904.4756, -3331.4532)"
                      d="M 2916 3709 c -20 -17 -40 -47 -46 -67 c -10 -38 -2 -60 68 -187 c 18 -34 27 -64 27 -96 c 0 -56 -20 -83 -83 -110 c -63 -27 -92 -63 -92 -113 c 0 -48 24 -90 92 -166 c 37 -40 52 -50 68 -45 c 32 10 24 28 -40 99 c -58 64 -78 102 -67 130 c 3 7 34 29 68 48 c 77 42 100 72 107 136 c 5 61 -9 107 -59 193 c -22 36 -39 75 -39 87 c 0 12 14 37 30 55 c 56 64 29 92 -34 36 z"
                      stroke-linecap="round"/>
            </g>
            <g transform="matrix(0.1333 0 0 -0.1333 338.0571 -188.8384)">
                <path style="stroke: none; stroke-width: 1; stroke-dasharray: none; stroke-linecap: butt; stroke-dashoffset: 0; stroke-linejoin: miter; stroke-miterlimit: 4; is-custom-font: none; font-file-url: none; fill: rgb(0,0,0); fill-rule: nonzero; opacity: 1;"
                      transform=" translate(-5785.457, -3331.1857)"
                      d="M 5705 3730 c -4 -6 10 -29 29 -52 c 43 -49 45 -71 10 -121 c -49 -73 -74 -139 -74 -198 c 0 -74 27 -114 104 -155 c 32 -18 63 -39 68 -47 c 15 -28 -3 -66 -63 -132 c -64 -71 -71 -90 -38 -100 c 16 -5 25 -2 32 11 c 6 11 32 42 58 69 c 102 108 93 180 -31 246 c -98 52 -104 114 -26 250 c 28 48 46 91 46 110 c 0 66 -90 159 -115 119 z"
                      stroke-linecap="round"/>
            </g>
            <g transform="matrix(0.1333 0 0 -0.1333 -298.666 -171.9268)">
                <path style="stroke: none; stroke-width: 1; stroke-dasharray: none; stroke-linecap: butt; stroke-dashoffset: 0; stroke-linejoin: miter; stroke-miterlimit: 4; is-custom-font: none; font-file-url: none; fill: rgb(0,0,0); fill-rule: nonzero; opacity: 1;"
                      transform=" translate(-1010.0276, -3204.3789)"
                      d="M 985 3480 c -4 -6 7 -23 24 -37 c 44 -39 40 -64 -16 -110 c -45 -37 -73 -83 -73 -121 c 0 -11 18 -46 40 -78 c 46 -67 47 -95 5 -150 c -30 -39 -31 -46 -6 -61 c 17 -10 23 -8 44 20 c 37 50 47 73 47 112 c 0 40 -11 66 -46 108 c -38 46 -31 73 36 143 c 69 72 76 103 34 153 c -26 31 -76 43 -89 21 z"
                      stroke-linecap="round"/>
            </g>
            <g transform="matrix(0.1333 0 0 -0.1333 -7.7261 -171.8105)">
                <path style="stroke: none; stroke-width: 1; stroke-dasharray: none; stroke-linecap: butt; stroke-dashoffset: 0; stroke-linejoin: miter; stroke-miterlimit: 4; is-custom-font: none; font-file-url: none; fill: rgb(0,0,0); fill-rule: nonzero; opacity: 1;"
                      transform=" translate(-3192.0762, -3203.5066)"
                      d="M 3165 3480 c -5 -8 8 -24 49 -58 c 22 -17 11 -39 -49 -98 c -78 -75 -80 -117 -10 -213 c 33 -44 32 -69 -5 -119 c -35 -49 -36 -53 -10 -69 c 17 -11 22 -9 43 20 c 61 80 63 131 12 206 c -48 69 -46 87 20 149 c 74 70 83 118 35 170 c -21 23 -74 30 -85 12 z"
                      stroke-linecap="round"/>
            </g>
            <g transform="matrix(0.1333 0 0 -0.1333 299.3265 -171.7019)">
                <path style="stroke: none; stroke-width: 1; stroke-dasharray: none; stroke-linecap: butt; stroke-dashoffset: 0; stroke-linejoin: miter; stroke-miterlimit: 4; is-custom-font: none; font-file-url: none; fill: rgb(0,0,0); fill-rule: nonzero; opacity: 1;"
                      transform=" translate(-5494.9699, -3202.6924)"
                      d="M 5435 3465 c -27 -26 -33 -71 -14 -108 c 6 -12 33 -43 60 -68 c 58 -54 61 -76 19 -129 c -59 -75 -59 -127 1 -209 c 29 -41 31 -42 49 -26 c 18 16 18 18 -11 63 c -38 60 -37 89 6 143 c 27 35 35 53 35 87 c 0 38 -6 49 -60 107 c -33 35 -60 71 -60 78 c 0 7 14 23 30 35 c 39 30 39 52 0 52 c -19 0 -40 -9 -55 -25 z"
                      stroke-linecap="round"/>
            </g>
            <g transform="matrix(0.1333 0 0 -0.1333 -290.0328 62.9015)">
                <path style="stroke: none; stroke-width: 1; stroke-dasharray: none; stroke-linecap: butt; stroke-dashoffset: 0; stroke-linejoin: miter; stroke-miterlimit: 4; is-custom-font: none; font-file-url: none; fill: rgb(0,0,0); fill-rule: nonzero; opacity: 1;"
                      transform=" translate(-1075, -1442.8952)"
                      d="M 817 2809 c -173 -8 -259 -18 -410 -45 c -122 -22 -133 -33 -157 -157 c -11 -55 -23 -103 -26 -108 c -3 -5 -25 -14 -50 -20 c -66 -17 -84 -45 -84 -135 c 0 -40 3 -80 6 -89 c 8 -19 55 -45 82 -45 c 45 0 36 59 137 -885 c 55 -515 118 -1018 141 -1128 c 8 -37 35 -53 130 -77 c 140 -37 279 -52 474 -52 c 304 1 584 45 635 102 c 22 24 58 281 179 1280 c 48 388 89 717 92 733 c 3 17 17 33 35 42 c 39 20 59 63 59 125 c 0 78 -20 117 -69 130 c -53 14 -68 39 -81 129 c -13 90 -34 137 -70 156 c -87 45 -568 66 -1023 44 z m 835 -79 c 97 -9 168 -30 168 -49 c 0 -21 -306 -67 -557 -82 c -264 -17 -708 15 -888 62 l -40 11 l 25 13 c 93 47 336 65 810 60 c 212 -3 429 -9 482 -15 z m -1232 -145 c 267 -47 705 -67 965 -46 c 129 11 390 45 442 57 c 20 5 22 1 28 -53 c 8 -65 26 -100 58 -113 c 22 -8 22 -8 -5 -19 c -155 -60 -853 -102 -1222 -72 c -166 14 -304 34 -389 58 l -58 16 l 26 27 c 22 23 45 100 45 153 c 0 10 13 9 110 -8 z m -124 -259 c 265 -50 405 -61 754 -61 c 345 1 448 9 774 61 c 121 20 160 23 166 14 c 13 -21 -1 -50 -30 -65 c -30 -15 -291 -55 -500 -77 c -165 -17 -710 -17 -855 0 c -126 15 -411 69 -437 83 c -18 10 -26 69 -9 69 c 4 0 66 -11 137 -24 z m 1604 -143 c 0 -16 -40 -320 -51 -391 c -7 -41 -17 -76 -23 -78 c -23 -8 -430 -43 -636 -55 c -317 -17 -574 4 -777 63 l -72 21 l -10 51 c -12 62 -28 192 -37 305 l -7 84 l 34 -7 c 80 -15 243 -36 354 -46 c 152 -14 562 -14 720 0 c 140 12 448 50 454 56 c 8 7 51 4 51 -3 z m -1412 -568 c 330 -62 735 -66 1117 -9 c 94 13 183 27 199 31 c 28 6 29 5 23 -28 c -4 -19 -18 -137 -32 -264 c -43 -388 -56 -479 -68 -487 c -33 -20 -282 -62 -462 -78 c -327 -28 -698 3 -809 68 c -38 22 -39 24 -66 377 c -11 149 -24 303 -27 344 l -6 74 l 27 -7 c 15 -3 61 -13 104 -21 z m 69 -871 c 153 -39 254 -49 483 -48 c 227 0 370 15 579 58 c 65 13 111 19 111 13 c 0 -56 -65 -510 -77 -535 c -12 -26 -25 -35 -67 -47 c -156 -44 -548 -68 -741 -46 c -187 22 -310 53 -326 83 c -8 16 -89 520 -89 556 c 0 2 8 1 18 -3 c 9 -4 58 -18 109 -31 z"
                      stroke-linecap="round"/>
            </g>
            <g transform="matrix(0.1333 0 0 -0.1333 -287.3773 96.173)">
                <path style="stroke: none; stroke-width: 1; stroke-dasharray: none; stroke-linecap: butt; stroke-dashoffset: 0; stroke-linejoin: miter; stroke-miterlimit: 4; is-custom-font: none; font-file-url: none; fill: rgb(0,0,0); fill-rule: nonzero; opacity: 1;"
                      transform=" translate(-1094.7568, -1193.6289)"
                      d="M 831 1476 c -7 -8 -10 -20 -6 -26 c 3 -5 1 -10 -4 -10 c -6 0 -11 7 -11 16 c 0 14 -3 14 -16 3 c -14 -12 -44 -61 -44 -74 c 0 -3 7 -5 15 -5 c 8 0 15 -4 15 -10 c 0 -5 -7 -7 -15 -4 c -10 4 -15 0 -15 -15 c 0 -12 5 -18 13 -16 c 7 3 13 -5 14 -22 c 1 -26 0 -27 -13 -8 c -13 17 -14 17 -14 2 c 0 -52 136 -207 182 -207 c 10 0 18 -4 18 -9 c 0 -5 14 -23 31 -40 c 31 -32 51 -33 48 -3 c -1 10 -1 28 0 42 l 2 25 l 13 -24 c 8 -14 15 -19 17 -12 c 3 7 12 9 21 6 c 14 -6 15 -10 6 -25 c -9 -14 -9 -22 2 -34 c 17 -22 4 -33 -20 -18 c -22 13 -54 16 -48 5 c 12 -26 72 -113 78 -113 c 4 0 19 18 34 41 c 22 32 25 43 15 55 c -6 8 -9 17 -6 21 c 4 3 9 -2 13 -11 c 9 -24 16 -20 44 22 c 14 20 32 43 42 50 c 70 52 153 132 174 167 c 39 67 28 146 -22 165 c -16 7 -24 16 -21 24 c 6 15 -13 36 -35 40 c -7 1 -18 5 -23 8 c -18 11 -133 3 -149 -11 c -8 -7 -12 -19 -9 -27 c 3 -8 0 -14 -7 -14 c -6 0 -8 5 -5 10 c 13 22 -15 8 -34 -16 l -20 -26 l -46 37 c -33 27 -45 33 -45 21 c 0 -23 4 -31 13 -28 c 13 4 8 -8 -13 -31 c -11 -12 -18 -27 -16 -34 c 3 -7 2 -13 -3 -13 c -15 0 -22 48 -12 90 c 5 22 8 40 7 41 c 0 0 -31 3 -67 5 c -50 3 -69 1 -78 -10 z m 439 -16 c 0 -5 -7 -10 -15 -10 c -8 0 -15 5 -15 10 c 0 6 7 10 15 10 c 8 0 15 -4 15 -10 z m 90 -20 c 0 -5 -4 -10 -10 -10 c -5 0 -10 5 -10 10 c 0 6 5 10 10 10 c 6 0 10 -4 10 -10 z m -470 -20 c 0 -5 -4 -10 -10 -10 c -5 0 -10 5 -10 10 c 0 6 5 10 10 10 c 6 0 10 -4 10 -10 z m 430 -55 c 0 -3 -7 -5 -15 -5 c -8 0 -16 -8 -16 -17 c -1 -19 -16 30 -18 59 c -1 14 4 12 24 -8 c 14 -14 25 -27 25 -29 z m -160 -1 c 0 -24 14 -32 25 -14 c 4 6 11 7 17 4 c 14 -9 -5 -26 -35 -29 c -20 -2 -24 1 -20 16 c 3 11 -1 21 -10 25 c -13 5 -14 9 -4 19 c 16 17 27 9 27 -21 z m -82 -7 c 2 -11 -5 -20 -20 -26 c -36 -13 -49 -4 -36 25 c 13 29 51 30 56 1 z m 22 -27 c 0 -5 -4 -10 -10 -10 c -5 0 -10 5 -10 10 c 0 6 5 10 10 10 c 6 0 10 -4 10 -10 z m 326 -17 c -10 -10 -19 5 -10 18 c 6 11 8 11 12 0 c 2 -7 1 -15 -2 -18 z m -66 -23 c 0 -10 -4 -22 -10 -25 c -6 -4 -4 -15 6 -30 c 9 -14 11 -26 5 -29 c -5 -4 -12 3 -16 14 c -3 11 -15 20 -25 20 c -27 0 -35 35 -13 64 c 14 18 22 22 36 15 c 9 -6 17 -18 17 -29 z m -125 20 c 11 9 11 2 -1 -36 c -7 -25 -11 -50 -9 -54 c 3 -5 0 -12 -6 -16 c -9 -5 -11 6 -6 44 c 4 33 2 52 -4 52 c -6 0 -7 5 -3 12 c 6 9 9 9 12 0 c 3 -10 7 -10 17 -2 z m -272 -17 c 2 -10 8 -26 12 -35 c 9 -22 -5 -23 -31 -2 c -10 8 -13 12 -5 8 c 11 -5 12 -1 7 20 c -7 28 9 37 17 9 z m 167 -8 c 0 -8 7 -15 15 -15 c 9 0 12 -6 9 -15 c -9 -22 -19 -18 -32 10 c -15 32 -15 35 -2 35 c 6 0 10 -7 10 -15 z m -240 -10 c 0 -8 -2 -15 -4 -15 c -2 0 -6 7 -10 15 c -3 8 -1 15 4 15 c 6 0 10 -7 10 -15 z m 160 5 c 0 -5 -4 -10 -10 -10 c -5 0 -10 5 -10 10 c 0 6 5 10 10 10 c 6 0 10 -4 10 -10 z m -40 -10 c 0 -5 -4 -10 -9 -10 c -6 0 -13 5 -16 10 c -3 6 1 10 9 10 c 9 0 16 -4 16 -10 z m -140 -10 c 0 -5 -5 -10 -11 -10 c -6 0 -9 -9 -6 -20 c 3 -11 1 -20 -3 -20 c -16 0 -21 20 -10 40 c 11 21 30 27 30 10 z m 183 -25 c -19 -26 -29 -30 -38 -16 c -3 5 5 17 17 25 c 33 23 41 19 21 -9 z m -131 -13 c -17 -5 -15 -28 4 -47 c 19 -19 14 -28 -10 -19 c -9 4 -15 13 -12 20 c 3 7 -3 18 -12 24 c -15 9 -15 12 8 31 c 18 15 26 17 29 8 c 2 -7 -1 -15 -7 -17 z m 368 24 c 0 -3 -4 -8 -10 -11 c -5 -3 -10 -1 -10 4 c 0 6 5 11 10 11 c 6 0 10 -2 10 -4 z m 38 -37 c 3 -12 2 -12 -6 0 c -8 11 -10 11 -14 0 c -3 -8 -9 -11 -13 -7 c -10 9 4 30 18 25 c 6 -2 12 -10 15 -18 z m -318 -37 c 0 -8 -6 -12 -12 -9 c -7 2 -12 11 -10 21 c 2 9 -2 16 -8 16 c -6 0 -8 5 -5 11 c 8 12 34 -18 35 -39 z m 183 41 c 8 -14 -10 -48 -24 -48 c -8 -1 -13 -6 -12 -12 c 2 -7 -7 -11 -18 -10 c -19 1 -19 3 8 26 c 15 13 27 30 25 38 c -3 14 14 18 21 6 z m -153 -63 c 0 -5 -5 -10 -11 -10 c -5 0 -7 5 -4 10 c 3 6 8 10 11 10 c 2 0 4 -4 4 -10 z m -35 -20 c 3 -5 1 -10 -4 -10 c -6 0 -11 5 -11 10 c 0 6 2 10 4 10 c 3 0 8 -4 11 -10 z m 272 4 c -3 -3 -12 -4 -19 -1 c -8 3 -5 6 6 6 c 11 1 17 -2 13 -5 z m -79 -45 c -2 -6 -8 -10 -13 -10 c -5 0 -11 4 -13 10 c -2 6 4 11 13 11 c 9 0 15 -5 13 -11 z m -82 -57 c -11 -10 -15 4 -8 28 l 7 25 l 3 -23 c 2 -13 1 -26 -2 -30 z m -6 -72 c 0 -5 -4 -10 -10 -10 c -5 0 -10 5 -10 10 c 0 6 5 10 10 10 c 6 0 10 -4 10 -10 z"
                      stroke-linecap="round"/>
            </g>
            <g transform="matrix(0.1333 0 0 -0.1333 0.6338 62.8348)">
                <path style="stroke: none; stroke-width: 1; stroke-dasharray: none; stroke-linecap: butt; stroke-dashoffset: 0; stroke-linejoin: miter; stroke-miterlimit: 4; is-custom-font: none; font-file-url: none; fill: rgb(0,0,0); fill-rule: nonzero; opacity: 1;"
                      transform=" translate(-3255, -1443.3952)"
                      d="M 3006 2809 c -274 -13 -492 -47 -532 -83 c -19 -16 -28 -43 -44 -119 c -11 -54 -22 -103 -26 -108 c -3 -5 -25 -14 -50 -20 c -66 -17 -84 -45 -84 -135 c 0 -40 3 -80 6 -89 c 8 -19 55 -45 82 -45 c 46 0 38 48 132 -839 c 70 -659 131 -1130 152 -1184 c 14 -36 42 -50 153 -75 c 143 -33 257 -43 450 -43 c 277 0 536 37 612 86 c 13 9 28 26 33 39 c 12 31 64 429 165 1256 c 47 382 87 710 90 727 c 4 23 15 38 35 48 c 40 20 60 63 60 125 c 0 78 -20 117 -69 130 c -52 14 -67 38 -79 126 c -12 88 -36 140 -72 159 c -86 45 -575 66 -1014 44 z m 826 -79 c 97 -9 168 -30 168 -49 c 0 -12 -59 -25 -236 -50 c -358 -53 -726 -49 -1093 9 c -68 11 -130 24 -139 29 c -29 16 114 50 273 66 c 167 16 851 13 1027 -5 z m -1233 -145 c 217 -38 374 -49 681 -50 c 307 0 430 10 664 51 c 44 7 81 12 83 10 c 2 -2 6 -28 10 -57 c 6 -62 24 -96 56 -109 c 22 -8 22 -8 -5 -19 c -155 -60 -853 -102 -1222 -72 c -166 14 -304 34 -389 58 l -58 16 l 26 27 c 22 23 45 100 45 153 c 0 10 13 9 109 -8 z m -167 -251 c 253 -53 569 -79 893 -71 c 266 6 424 21 678 63 c 175 29 195 27 167 -23 c -18 -32 -37 -37 -200 -63 c -422 -65 -973 -78 -1280 -29 c -123 20 -325 61 -342 70 c -22 12 -25 69 -4 69 c 8 0 48 -7 88 -16 z m 1643 -201 c -18 -151 -57 -409 -63 -415 c -10 -10 -405 -46 -648 -59 c -312 -17 -569 4 -771 63 l -72 21 l -10 46 c -14 65 -45 380 -39 387 c 3 3 46 -2 94 -10 c 399 -67 965 -64 1394 9 c 129 22 122 24 115 -42 z m -897 -663 c 21 -10 50 -29 65 -42 l 29 -24 l 37 37 c 87 88 236 66 291 -41 c 24 -47 26 -100 5 -144 c -9 -18 -63 -76 -120 -129 c -57 -54 -125 -126 -151 -162 c -26 -36 -51 -65 -55 -65 c -4 0 -18 19 -32 43 c -24 41 -89 106 -216 215 c -74 65 -101 113 -101 182 c 0 80 27 120 97 146 c 45 17 101 11 151 -16 z m -441 -726 c 153 -39 254 -49 483 -48 c 226 0 362 14 578 58 c 87 18 112 20 112 10 c 0 -52 -64 -504 -75 -530 c -11 -28 -22 -35 -67 -48 c -158 -45 -550 -70 -743 -47 c -195 23 -309 52 -326 83 c -8 15 -89 521 -89 555 c 0 3 8 2 18 -2 c 9 -4 58 -18 109 -31 z"
                      stroke-linecap="round"/>
            </g>
            <g transform="matrix(0.1333 0 0 -0.1333 291.3484 63.1257)">
                <path style="stroke: none; stroke-width: 1; stroke-dasharray: none; stroke-linecap: butt; stroke-dashoffset: 0; stroke-linejoin: miter; stroke-miterlimit: 4; is-custom-font: none; font-file-url: none; fill: rgb(0,0,0); fill-rule: nonzero; opacity: 1;"
                      transform=" translate(-5435.3592, -1441.2137)"
                      d="M 4994 2810 c -178 -9 -284 -25 -326 -46 c -39 -20 -65 -80 -74 -169 c -8 -77 -34 -115 -77 -115 c -42 0 -61 -34 -65 -116 c -5 -82 9 -116 54 -136 c 31 -15 39 -43 64 -258 c 112 -967 217 -1757 236 -1787 c 20 -32 61 -50 156 -72 c 267 -62 704 -57 966 10 c 120 31 117 25 158 300 c 30 210 54 417 165 1454 c 32 297 41 335 79 335 c 32 0 67 21 79 47 c 17 37 13 133 -7 173 c -14 28 -26 37 -61 46 c -55 13 -67 29 -81 117 c -17 98 -33 135 -67 148 c -44 17 -227 47 -353 59 c -158 14 -663 20 -846 10 z m 865 -75 c 176 -15 324 -46 305 -65 c -12 -10 -160 -35 -344 -56 c -177 -21 -561 -23 -735 -5 c -135 14 -383 56 -393 66 c -12 12 30 34 87 46 c 134 28 811 36 1080 14 z m -1010 -165 c 401 -57 853 -51 1244 16 c 48 8 92 12 96 9 c 5 -3 12 -29 16 -58 c 8 -60 19 -86 47 -108 c 19 -15 18 -16 -19 -27 c -71 -21 -266 -50 -416 -63 c -199 -16 -725 -7 -907 16 c -145 17 -300 48 -328 64 c -15 9 -15 10 4 11 c 27 0 53 29 58 66 c 3 16 8 46 11 67 c 6 36 8 38 32 32 c 14 -3 87 -15 162 -25 z m -160 -245 c 287 -48 433 -59 781 -59 c 347 -1 458 8 739 60 c 108 20 136 22 143 12 c 24 -39 1 -57 -98 -79 c -415 -91 -866 -104 -1394 -38 c -300 37 -350 52 -350 106 c 0 29 -2 29 179 -2 z m 615 -837 c 22 -7 57 -29 76 -48 l 36 -36 l 39 33 c 129 112 305 56 305 -96 c 0 -85 -31 -130 -167 -238 c -76 -60 -143 -135 -172 -191 c -11 -21 -14 -19 -71 56 c -32 43 -102 118 -155 167 c -107 98 -125 125 -125 185 c 0 79 52 146 130 168 c 48 14 57 14 104 0 z"
                      stroke-linecap="round"/>
            </g>
        </g>
    </g>
</svg>
