<?xml version="1.0" encoding="utf-8"?>
<svg viewBox="-51.8055 126.1534 632.968 367.2196" xmlns="http://www.w3.org/2000/svg">
    <g transform="matrix(0.10000000149011612, 0, 0, -0.10000000149011612, -60.805511474609375, 500.1191711425782)"
       fill="#000000" stroke="none">
        <path d="M736 3710 c-19 -17 -40 -47 -46 -66 -12 -34 -9 -42 45 -149 49 -97 57 -119 52 -151 -8 -46 -30 -72 -85 -95 -63 -27 -92 -63 -92 -113 0 -47 24 -90 91 -164 36 -40 51 -50 68 -45 11 3 21 7 21 10 0 14 -29 54 -71 99 -51 55 -69 97 -52 123 5 9 36 30 67 46 71 37 98 72 104 135 5 58 -8 101 -59 190 -22 37 -39 77 -39 88 0 12 14 37 30 55 55 64 29 92 -34 37z"/>
        <path d="M2916 3709 c-20 -17 -40 -47 -46 -67 -10 -38 -2 -60 68 -187 18 -34 27 -64 27 -96 0 -56 -20 -83 -83 -110 -63 -27 -92 -63 -92 -113 0 -48 24 -90 92 -166 37 -40 52 -50 68 -45 32 10 24 28 -40 99 -58 64 -78 102 -67 130 3 7 34 29 68 48 77 42 100 72 107 136 5 61 -9 107 -59 193 -22 36 -39 75 -39 87 0 12 14 37 30 55 56 64 29 92 -34 36z"/>
        <path d="M5705 3730 c-4 -6 10 -29 29 -52 43 -49 45 -71 10 -121 -49 -73 -74 -139 -74 -198 0 -74 27 -114 104 -155 32 -18 63 -39 68 -47 15 -28 -3 -66 -63 -132 -64 -71 -71 -90 -38 -100 16 -5 25 -2 32 11 6 11 32 42 58 69 102 108 93 180 -31 246 -98 52 -104 114 -26 250 28 48 46 91 46 110 0 66 -90 159 -115 119z"/>
        <path d="M985 3480 c-4 -6 7 -23 24 -37 44 -39 40 -64 -16 -110 -45 -37 -73 -83 -73 -121 0 -11 18 -46 40 -78 46 -67 47 -95 5 -150 -30 -39 -31 -46 -6 -61 17 -10 23 -8 44 20 37 50 47 73 47 112 0 40 -11 66 -46 108 -38 46 -31 73 36 143 69 72 76 103 34 153 -26 31 -76 43 -89 21z"/>
        <path d="M3165 3480 c-5 -8 8 -24 49 -58 22 -17 11 -39 -49 -98 -78 -75 -80 -117 -10 -213 33 -44 32 -69 -5 -119 -35 -49 -36 -53 -10 -69 17 -11 22 -9 43 20 61 80 63 131 12 206 -48 69 -46 87 20 149 74 70 83 118 35 170 -21 23 -74 30 -85 12z"/>
        <path d="M5435 3465 c-27 -26 -33 -71 -14 -108 6 -12 33 -43 60 -68 58 -54 61 -76 19 -129 -59 -75 -59 -127 1 -209 29 -41 31 -42 49 -26 18 16 18 18 -11 63 -38 60 -37 89 6 143 27 35 35 53 35 87 0 38 -6 49 -60 107 -33 35 -60 71 -60 78 0 7 14 23 30 35 39 30 39 52 0 52 -19 0 -40 -9 -55 -25z"/>
        <path d="M817 2809 c-173 -8 -259 -18 -410 -45 -122 -22 -133 -33 -157 -157 -11 -55 -23 -103 -26 -108 -3 -5 -25 -14 -50 -20 -66 -17 -84 -45 -84 -135 0 -40 3 -80 6 -89 8 -19 55 -45 82 -45 45 0 36 59 137 -885 55 -515 118 -1018 141 -1128 8 -37 35 -53 130 -77 140 -37 279 -52 474 -52 304 1 584 45 635 102 22 24 58 281 179 1280 48 388 89 717 92 733 3 17 17 33 35 42 39 20 59 63 59 125 0 78 -20 117 -69 130 -53 14 -68 39 -81 129 -13 90 -34 137 -70 156 -87 45 -568 66 -1023 44z m835 -79 c97 -9 168 -30 168 -49 0 -21 -306 -67 -557 -82 -264 -17 -708 15 -888 62 l-40 11 25 13 c93 47 336 65 810 60 212 -3 429 -9 482 -15z m-1232 -145 c267 -47 705 -67 965 -46 129 11 390 45 442 57 20 5 22 1 28 -53 8 -65 26 -100 58 -113 22 -8 22 -8 -5 -19 -155 -60 -853 -102 -1222 -72 -166 14 -304 34 -389 58 l-58 16 26 27 c22 23 45 100 45 153 0 10 13 9 110 -8z m-124 -259 c265 -50 405 -61 754 -61 345 1 448 9 774 61 121 20 160 23 166 14 13 -21 -1 -50 -30 -65 -30 -15 -291 -55 -500 -77 -165 -17 -710 -17 -855 0 -126 15 -411 69 -437 83 -18 10 -26 69 -9 69 4 0 66 -11 137 -24z m1604 -143 c0 -16 -40 -320 -51 -391 -7 -41 -17 -76 -23 -78 -23 -8 -430 -43 -636 -55 -317 -17 -574 4 -777 63 l-72 21 -10 51 c-12 62 -28 192 -37 305 l-7 84 34 -7 c80 -15 243 -36 354 -46 152 -14 562 -14 720 0 140 12 448 50 454 56 8 7 51 4 51 -3z m-1412 -568 c330 -62 735 -66 1117 -9 94 13 183 27 199 31 28 6 29 5 23 -28 -4 -19 -18 -137 -32 -264 -43 -388 -56 -479 -68 -487 -33 -20 -282 -62 -462 -78 -327 -28 -698 3 -809 68 -38 22 -39 24 -66 377 -11 149 -24 303 -27 344 l-6 74 27 -7 c15 -3 61 -13 104 -21z m69 -871 c153 -39 254 -49 483 -48 227 0 370 15 579 58 65 13 111 19 111 13 0 -56 -65 -510 -77 -535 -12 -26 -25 -35 -67 -47 -156 -44 -548 -68 -741 -46 -187 22 -310 53 -326 83 -8 16 -89 520 -89 556 0 2 8 1 18 -3 9 -4 58 -18 109 -31z"/>
        <path d="M831 1476 c-7 -8 -10 -20 -6 -26 3 -5 1 -10 -4 -10 -6 0 -11 7 -11 16 0 14 -3 14 -16 3 -14 -12 -44 -61 -44 -74 0 -3 7 -5 15 -5 8 0 15 -4 15 -10 0 -5 -7 -7 -15 -4 -10 4 -15 0 -15 -15 0 -12 5 -18 13 -16 7 3 13 -5 14 -22 1 -26 0 -27 -13 -8 -13 17 -14 17 -14 2 0 -52 136 -207 182 -207 10 0 18 -4 18 -9 0 -5 14 -23 31 -40 31 -32 51 -33 48 -3 -1 10 -1 28 0 42 l2 25 13 -24 c8 -14 15 -19 17 -12 3 7 12 9 21 6 14 -6 15 -10 6 -25 -9 -14 -9 -22 2 -34 17 -22 4 -33 -20 -18 -22 13 -54 16 -48 5 12 -26 72 -113 78 -113 4 0 19 18 34 41 22 32 25 43 15 55 -6 8 -9 17 -6 21 4 3 9 -2 13 -11 9 -24 16 -20 44 22 14 20 32 43 42 50 70 52 153 132 174 167 39 67 28 146 -22 165 -16 7 -24 16 -21 24 6 15 -13 36 -35 40 -7 1 -18 5 -23 8 -18 11 -133 3 -149 -11 -8 -7 -12 -19 -9 -27 3 -8 0 -14 -7 -14 -6 0 -8 5 -5 10 13 22 -15 8 -34 -16 l-20 -26 -46 37 c-33 27 -45 33 -45 21 0 -23 4 -31 13 -28 13 4 8 -8 -13 -31 -11 -12 -18 -27 -16 -34 3 -7 2 -13 -3 -13 -15 0 -22 48 -12 90 5 22 8 40 7 41 0 0 -31 3 -67 5 -50 3 -69 1 -78 -10z m439 -16 c0 -5 -7 -10 -15 -10 -8 0 -15 5 -15 10 0 6 7 10 15 10 8 0 15 -4 15 -10z m90 -20 c0 -5 -4 -10 -10 -10 -5 0 -10 5 -10 10 0 6 5 10 10 10 6 0 10 -4 10 -10z m-470 -20 c0 -5 -4 -10 -10 -10 -5 0 -10 5 -10 10 0 6 5 10 10 10 6 0 10 -4 10 -10z m430 -55 c0 -3 -7 -5 -15 -5 -8 0 -16 -8 -16 -17 -1 -19 -16 30 -18 59 -1 14 4 12 24 -8 14 -14 25 -27 25 -29z m-160 -1 c0 -24 14 -32 25 -14 4 6 11 7 17 4 14 -9 -5 -26 -35 -29 -20 -2 -24 1 -20 16 3 11 -1 21 -10 25 -13 5 -14 9 -4 19 16 17 27 9 27 -21z m-82 -7 c2 -11 -5 -20 -20 -26 -36 -13 -49 -4 -36 25 13 29 51 30 56 1z m22 -27 c0 -5 -4 -10 -10 -10 -5 0 -10 5 -10 10 0 6 5 10 10 10 6 0 10 -4 10 -10z m326 -17 c-10 -10 -19 5 -10 18 6 11 8 11 12 0 2 -7 1 -15 -2 -18z m-66 -23 c0 -10 -4 -22 -10 -25 -6 -4 -4 -15 6 -30 9 -14 11 -26 5 -29 -5 -4 -12 3 -16 14 -3 11 -15 20 -25 20 -27 0 -35 35 -13 64 14 18 22 22 36 15 9 -6 17 -18 17 -29z m-125 20 c11 9 11 2 -1 -36 -7 -25 -11 -50 -9 -54 3 -5 0 -12 -6 -16 -9 -5 -11 6 -6 44 4 33 2 52 -4 52 -6 0 -7 5 -3 12 6 9 9 9 12 0 3 -10 7 -10 17 -2z m-272 -17 c2 -10 8 -26 12 -35 9 -22 -5 -23 -31 -2 -10 8 -13 12 -5 8 11 -5 12 -1 7 20 -7 28 9 37 17 9z m167 -8 c0 -8 7 -15 15 -15 9 0 12 -6 9 -15 -9 -22 -19 -18 -32 10 -15 32 -15 35 -2 35 6 0 10 -7 10 -15z m-240 -10 c0 -8 -2 -15 -4 -15 -2 0 -6 7 -10 15 -3 8 -1 15 4 15 6 0 10 -7 10 -15z m160 5 c0 -5 -4 -10 -10 -10 -5 0 -10 5 -10 10 0 6 5 10 10 10 6 0 10 -4 10 -10z m-40 -10 c0 -5 -4 -10 -9 -10 -6 0 -13 5 -16 10 -3 6 1 10 9 10 9 0 16 -4 16 -10z m-140 -10 c0 -5 -5 -10 -11 -10 -6 0 -9 -9 -6 -20 3 -11 1 -20 -3 -20 -16 0 -21 20 -10 40 11 21 30 27 30 10z m183 -25 c-19 -26 -29 -30 -38 -16 -3 5 5 17 17 25 33 23 41 19 21 -9z m-131 -13 c-17 -5 -15 -28 4 -47 19 -19 14 -28 -10 -19 -9 4 -15 13 -12 20 3 7 -3 18 -12 24 -15 9 -15 12 8 31 18 15 26 17 29 8 2 -7 -1 -15 -7 -17z m368 24 c0 -3 -4 -8 -10 -11 -5 -3 -10 -1 -10 4 0 6 5 11 10 11 6 0 10 -2 10 -4z m38 -37 c3 -12 2 -12 -6 0 -8 11 -10 11 -14 0 -3 -8 -9 -11 -13 -7 -10 9 4 30 18 25 6 -2 12 -10 15 -18z m-318 -37 c0 -8 -6 -12 -12 -9 -7 2 -12 11 -10 21 2 9 -2 16 -8 16 -6 0 -8 5 -5 11 8 12 34 -18 35 -39z m183 41 c8 -14 -10 -48 -24 -48 -8 -1 -13 -6 -12 -12 2 -7 -7 -11 -18 -10 -19 1 -19 3 8 26 15 13 27 30 25 38 -3 14 14 18 21 6z m-153 -63 c0 -5 -5 -10 -11 -10 -5 0 -7 5 -4 10 3 6 8 10 11 10 2 0 4 -4 4 -10z m-35 -20 c3 -5 1 -10 -4 -10 -6 0 -11 5 -11 10 0 6 2 10 4 10 3 0 8 -4 11 -10z m272 4 c-3 -3 -12 -4 -19 -1 -8 3 -5 6 6 6 11 1 17 -2 13 -5z m-79 -45 c-2 -6 -8 -10 -13 -10 -5 0 -11 4 -13 10 -2 6 4 11 13 11 9 0 15 -5 13 -11z m-82 -57 c-11 -10 -15 4 -8 28 l7 25 3 -23 c2 -13 1 -26 -2 -30z m-6 -72 c0 -5 -4 -10 -10 -10 -5 0 -10 5 -10 10 0 6 5 10 10 10 6 0 10 -4 10 -10z"/>
        <path d="M3006 2809 c-274 -13 -492 -47 -532 -83 -19 -16 -28 -43 -44 -119 -11 -54 -22 -103 -26 -108 -3 -5 -25 -14 -50 -20 -66 -17 -84 -45 -84 -135 0 -40 3 -80 6 -89 8 -19 55 -45 82 -45 46 0 38 48 132 -839 70 -659 131 -1130 152 -1184 14 -36 42 -50 153 -75 143 -33 257 -43 450 -43 277 0 536 37 612 86 13 9 28 26 33 39 12 31 64 429 165 1256 47 382 87 710 90 727 4 23 15 38 35 48 40 20 60 63 60 125 0 78 -20 117 -69 130 -52 14 -67 38 -79 126 -12 88 -36 140 -72 159 -86 45 -575 66 -1014 44z m826 -79 c97 -9 168 -30 168 -49 0 -12 -59 -25 -236 -50 -358 -53 -726 -49 -1093 9 -68 11 -130 24 -139 29 -29 16 114 50 273 66 167 16 851 13 1027 -5z m-1233 -145 c217 -38 374 -49 681 -50 307 0 430 10 664 51 44 7 81 12 83 10 2 -2 6 -28 10 -57 6 -62 24 -96 56 -109 22 -8 22 -8 -5 -19 -155 -60 -853 -102 -1222 -72 -166 14 -304 34 -389 58 l-58 16 26 27 c22 23 45 100 45 153 0 10 13 9 109 -8z m-167 -251 c253 -53 569 -79 893 -71 266 6 424 21 678 63 175 29 195 27 167 -23 -18 -32 -37 -37 -200 -63 -422 -65 -973 -78 -1280 -29 -123 20 -325 61 -342 70 -22 12 -25 69 -4 69 8 0 48 -7 88 -16z m1643 -201 c-18 -151 -57 -409 -63 -415 -10 -10 -405 -46 -648 -59 -312 -17 -569 4 -771 63 l-72 21 -10 46 c-14 65 -45 380 -39 387 3 3 46 -2 94 -10 399 -67 965 -64 1394 9 129 22 122 24 115 -42z m-897 -663 c21 -10 50 -29 65 -42 l29 -24 37 37 c87 88 236 66 291 -41 24 -47 26 -100 5 -144 -9 -18 -63 -76 -120 -129 -57 -54 -125 -126 -151 -162 -26 -36 -51 -65 -55 -65 -4 0 -18 19 -32 43 -24 41 -89 106 -216 215 -74 65 -101 113 -101 182 0 80 27 120 97 146 45 17 101 11 151 -16z m-441 -726 c153 -39 254 -49 483 -48 226 0 362 14 578 58 87 18 112 20 112 10 0 -52 -64 -504 -75 -530 -11 -28 -22 -35 -67 -48 -158 -45 -550 -70 -743 -47 -195 23 -309 52 -326 83 -8 15 -89 521 -89 555 0 3 8 2 18 -2 9 -4 58 -18 109 -31z"/>
        <path d="M4994 2810 c-178 -9 -284 -25 -326 -46 -39 -20 -65 -80 -74 -169 -8 -77 -34 -115 -77 -115 -42 0 -61 -34 -65 -116 -5 -82 9 -116 54 -136 31 -15 39 -43 64 -258 112 -967 217 -1757 236 -1787 20 -32 61 -50 156 -72 267 -62 704 -57 966 10 120 31 117 25 158 300 30 210 54 417 165 1454 32 297 41 335 79 335 32 0 67 21 79 47 17 37 13 133 -7 173 -14 28 -26 37 -61 46 -55 13 -67 29 -81 117 -17 98 -33 135 -67 148 -44 17 -227 47 -353 59 -158 14 -663 20 -846 10z m865 -75 c176 -15 324 -46 305 -65 -12 -10 -160 -35 -344 -56 -177 -21 -561 -23 -735 -5 -135 14 -383 56 -393 66 -12 12 30 34 87 46 134 28 811 36 1080 14z m-1010 -165 c401 -57 853 -51 1244 16 48 8 92 12 96 9 5 -3 12 -29 16 -58 8 -60 19 -86 47 -108 19 -15 18 -16 -19 -27 -71 -21 -266 -50 -416 -63 -199 -16 -725 -7 -907 16 -145 17 -300 48 -328 64 -15 9 -15 10 4 11 27 0 53 29 58 66 3 16 8 46 11 67 6 36 8 38 32 32 14 -3 87 -15 162 -25z m-160 -245 c287 -48 433 -59 781 -59 347 -1 458 8 739 60 108 20 136 22 143 12 24 -39 1 -57 -98 -79 -415 -91 -866 -104 -1394 -38 -300 37 -350 52 -350 106 0 29 -2 29 179 -2z m615 -837 c22 -7 57 -29 76 -48 l36 -36 39 33 c129 112 305 56 305 -96 0 -85 -31 -130 -167 -238 -76 -60 -143 -135 -172 -191 -11 -21 -14 -19 -71 56 -32 43 -102 118 -155 167 -107 98 -125 125 -125 185 0 79 52 146 130 168 48 14 57 14 104 0z"/>
    </g>
</svg>